<?xml version="1.0" encoding="UTF-8"?>
<!DOCTYPE svg PUBLIC "-//W3C//DTD SVG 1.1//EN" "http://www.w3.org/Graphics/SVG/1.1/DTD/svg11.dtd">
<svg xmlns="http://www.w3.org/2000/svg" version="1.1" width="660px" height="508px" style="shape-rendering:geometricPrecision; text-rendering:geometricPrecision; image-rendering:optimizeQuality; fill-rule:evenodd; clip-rule:evenodd" xmlns:xlink="http://www.w3.org/1999/xlink">
<g><path style="opacity:0.965" fill="#231917" d="M 185.5,-0.5 C 280.167,-0.5 374.833,-0.5 469.5,-0.5C 527.332,0.332843 585.332,0.832843 643.5,1C 651.35,3.68502 656.684,8.85169 659.5,16.5C 659.5,35.5 659.5,54.5 659.5,73.5C 658.667,149.666 658.167,225.999 658,302.5C 656.945,311.221 652.111,316.388 643.5,318C 519.167,317.975 394.833,317.975 270.5,318C 262.735,327.768 254.235,336.935 245,345.5C 246.989,362.087 247.656,378.754 247,395.5C 241.935,416.602 229.101,424.102 208.5,418C 205.594,426.485 200.927,433.819 194.5,440C 190.068,442.588 185.402,443.421 180.5,442.5C 177.532,447.964 174.366,453.297 171,458.5C 166.5,463 162,467.5 157.5,472C 140.263,484.087 122.929,495.921 105.5,507.5C 102.167,507.5 98.8333,507.5 95.5,507.5C 63.7163,498.442 34.383,484.275 7.5,465C 4.44899,461.701 1.78233,458.201 -0.5,454.5C -0.5,452.167 -0.5,449.833 -0.5,447.5C 4.00131,433.473 7.83465,419.139 11,404.5C 17.0336,369.964 24.0336,335.63 32,301.5C 37.8971,280.807 45.5637,260.807 55,241.5C 60.5914,233.58 67.7581,227.414 76.5,223C 94.6038,215.743 112.937,209.076 131.5,203C 140.406,199.547 149.073,195.547 157.5,191C 161.086,189.892 164.753,189.392 168.5,189.5C 168.674,131.831 169.174,74.1643 170,16.5C 171.577,7.42767 176.744,1.761 185.5,-0.5 Z"/></g>
<g><path style="opacity:1" fill="#fefefe" d="M 186.5,9.5 C 338.166,10.0183 489.833,10.5183 641.5,11C 644.583,11.786 646.749,13.6193 648,16.5C 648.995,112.581 648.662,208.581 647,304.5C 646.167,305.333 645.333,306.167 644.5,307C 522.499,307.833 400.499,307.667 278.5,306.5C 285.751,297.327 288.251,286.994 286,275.5C 280.553,263.694 271.387,259.194 258.5,262C 255.833,263 253.167,264 250.5,265C 229.669,278.583 208.669,291.916 187.5,305C 182.902,306.091 180.069,304.257 179,299.5C 178.208,205.496 178.541,111.496 180,17.5C 181.305,14.0386 183.471,11.372 186.5,9.5 Z"/></g>
<g><path style="opacity:1" fill="#fdfdfd" d="M 163.5,199.5 C 165.5,199.5 167.5,199.5 169.5,199.5C 169.667,221.169 169.5,242.836 169,264.5C 164.867,269.634 160.367,274.468 155.5,279C 149.271,284.233 142.771,289.066 136,293.5C 132.177,288.532 128.844,283.199 126,277.5C 122.988,274.75 120.321,275.083 118,278.5C 117.333,280.167 117.333,281.833 118,283.5C 124.34,293.509 130.173,303.842 135.5,314.5C 135.167,314.833 134.833,315.167 134.5,315.5C 127.414,312.36 120.08,310.027 112.5,308.5C 106.336,308.958 105.003,311.791 108.5,317C 118.895,320.132 129.229,323.465 139.5,327C 144.833,327.667 150.167,327.667 155.5,327C 167.26,324.191 178.593,320.191 189.5,315C 212.344,300.818 235.177,286.651 258,272.5C 271.002,268.528 277.336,273.194 277,286.5C 275.771,291.529 273.771,296.196 271,300.5C 266.667,306.167 262.333,311.833 258,317.5C 237.904,336.592 218.904,356.592 201,377.5C 189.031,394.772 179.697,413.439 173,433.5C 169.171,441.163 164.837,448.496 160,455.5C 153.413,462.091 146.247,467.924 138.5,473C 126.821,480.172 115.488,487.838 104.5,496C 102.966,496.923 101.299,497.423 99.5,497.5C 73.7399,490.286 49.4066,479.786 26.5,466C 21.044,462.213 15.8774,458.046 11,453.5C 10.3333,450.5 10.3333,447.5 11,444.5C 14.4108,433.603 17.4108,422.603 20,411.5C 25.3265,384.867 30.3265,358.201 35,331.5C 40.3908,305.661 48.3908,280.661 59,256.5C 63.9,243.267 73.0667,234.434 86.5,230C 104.015,223.273 121.681,216.939 139.5,211C 147.713,207.392 155.713,203.558 163.5,199.5 Z"/></g>
<g><path style="opacity:1" fill="#fbfbfb" d="M 167.5,280.5 C 168.328,286.653 168.828,292.987 169,299.5C 169.903,303.805 171.737,307.639 174.5,311C 165.646,315.262 156.313,317.429 146.5,317.5C 145.515,312.348 143.515,307.515 140.5,303C 150.31,296.435 159.31,288.935 167.5,280.5 Z"/></g>
<g><path style="opacity:1" fill="#fbfbfb" d="M 233.5,354.5 C 234.765,355.514 235.431,357.014 235.5,359C 236.534,366.636 237.2,374.302 237.5,382C 238.219,391.472 235.552,399.805 229.5,407C 219.243,412.389 211.743,409.889 207,399.5C 205.475,396.28 204.808,392.947 205,389.5C 208.333,384.833 211.667,380.167 215,375.5C 221.397,368.609 227.564,361.609 233.5,354.5 Z"/></g>
<g><path style="opacity:1" fill="#f3f2f2" d="M 196.5,403.5 C 198.884,404.425 199.884,406.258 199.5,409C 198.275,416.617 195.275,423.45 190.5,429.5C 188.929,431.415 186.929,432.415 184.5,432.5C 187.668,422.497 191.668,412.83 196.5,403.5 Z"/></g>
</svg>
